<?xml version="1.0" standalone="no"?>
<!DOCTYPE svg PUBLIC "-//W3C//DTD SVG 20010904//EN"
 "http://www.w3.org/TR/2001/REC-SVG-20010904/DTD/svg10.dtd">
<svg version="1.0" xmlns="http://www.w3.org/2000/svg"
 width="300.000000pt" height="324.000000pt" viewBox="0 0 300.000000 324.000000"
 preserveAspectRatio="xMidYMid meet">
<metadata>
Created by potrace 1.10, written by Peter Selinger 2001-2011
</metadata>
<g transform="translate(0.000000,324.000000) scale(0.100000,-0.100000)"
fill="#000000" stroke="none">
<path d="M1362 2290 c-75 -20 -172 -66 -172 -82 0 -5 10 -2 23 6 49 32 151 67
222 77 164 22 350 -45 466 -169 35 -37 76 -91 92 -119 34 -63 67 -189 67 -254
0 -75 -36 -225 -61 -255 -6 -8 -6 -14 -1 -18 6 -3 17 11 25 33 67 167 62 332
-15 491 -39 82 -160 205 -238 243 -132 65 -278 82 -408 47z"/>
<path d="M1010 2170 c-11 -7 -6 -10 21 -10 20 0 46 -8 58 -17 l21 -18 -40 -95
c-22 -52 -53 -124 -69 -160 -17 -41 -36 -70 -52 -77 -22 -12 -19 -13 30 -13
46 0 52 2 41 15 -10 12 -9 25 6 65 l18 51 74 -3 74 -3 23 -62 c12 -35 34 -78
48 -96 22 -30 24 -35 11 -57 -29 -54 -8 -111 51 -136 26 -11 42 -11 86 0 30 7
67 20 82 30 32 21 30 22 46 -23 23 -70 11 -121 -37 -144 -64 -32 -145 -13
-173 40 -7 13 -16 23 -21 23 -16 0 -7 -17 27 -50 68 -66 198 -47 224 33 10 30
3 72 -24 140 -7 16 -4 17 21 11 43 -10 81 -51 117 -124 27 -54 33 -78 35 -150
4 -82 3 -87 -20 -97 -20 -10 -14 -12 42 -12 53 0 61 2 45 11 -33 19 -36 30
-30 97 12 126 69 241 133 268 23 10 32 18 23 21 -21 7 -75 -25 -101 -60 -12
-17 -33 -56 -45 -87 -19 -45 -25 -52 -30 -36 -33 102 -86 167 -144 180 l-31 7
37 45 c58 70 94 103 112 103 9 0 31 -9 49 -20 17 -11 32 -16 32 -11 0 15 -25
31 -59 37 -42 9 -76 -10 -111 -61 -69 -100 -142 -153 -223 -162 -33 -4 -48 0
-69 17 -30 23 -34 45 -16 85 8 18 17 24 27 19 33 -13 91 -17 91 -5 0 6 -13 11
-29 11 -66 0 -113 68 -180 263 -22 63 -49 133 -60 156 -30 59 -99 88 -141 61z
m144 -153 c14 -42 26 -80 26 -82 0 -3 -29 -5 -65 -5 l-64 0 28 68 c15 37 31
76 35 86 9 25 10 23 40 -67z"/>
<path d="M1556 2078 c-30 -27 -66 -95 -66 -123 0 -12 10 1 24 31 22 48 68 104
85 104 4 0 16 -6 26 -14 18 -13 18 -16 5 -41 -8 -15 -41 -52 -74 -82 -53 -49
-61 -53 -67 -37 -7 16 -8 15 -9 -6 0 -18 -15 -35 -47 -60 -98 -73 -114 -90
-102 -112 10 -18 14 -16 72 34 34 29 95 80 135 113 41 32 85 75 98 94 26 38
31 90 12 109 -19 19 -65 14 -92 -10z"/>
<path d="M1485 1766 c5 -52 24 -130 30 -125 4 5 -23 149 -30 164 -3 6 -3 -12
0 -39z"/>
<path d="M926 1713 c-9 -9 -7 -73 2 -73 5 0 7 15 5 33 -2 27 0 26 12 -13 l15
-45 -5 40 c-3 28 -2 35 5 25 5 -8 10 -27 10 -41 0 -33 38 -111 50 -104 13 8
13 -15 0 -35 -12 -20 -20 -10 -41 52 -10 29 -20 52 -23 51 -16 -8 -25 -1 -20
15 4 11 3 13 -3 5 -7 -9 -18 -5 -46 18 -33 27 -37 28 -37 11 0 -38 30 -92 61
-107 17 -9 33 -14 36 -12 2 3 -5 8 -16 12 -25 8 -61 52 -61 74 1 12 5 11 20
-8 11 -13 20 -18 20 -12 0 7 5 9 11 6 6 -4 8 -9 5 -12 -3 -3 13 -28 35 -55 21
-27 40 -54 40 -59 1 -5 2 -15 3 -21 1 -7 -5 -16 -14 -20 -10 -4 -7 -7 11 -7
28 -1 64 -31 38 -31 -11 0 -11 -2 1 -10 25 -16 29 -12 23 24 -3 19 -1 36 6 40
14 9 15 26 1 26 -5 0 -13 -15 -18 -32 -8 -28 -11 -30 -17 -14 -5 10 -3 34 4
53 9 25 10 38 2 46 -7 7 -4 17 9 35 25 32 27 65 3 60 -11 -2 -17 -11 -15 -22
2 -12 -1 -16 -9 -10 -8 4 -10 3 -5 -5 4 -6 12 -9 17 -6 15 10 10 -11 -5 -24
-10 -8 -16 -9 -21 -1 -3 5 -3 10 0 10 4 0 -3 13 -14 29 -12 16 -21 36 -21 45
0 38 -37 85 -54 69z"/>
<path d="M890 1501 c0 -22 40 -63 64 -67 9 -1 14 2 10 7 -3 5 -11 9 -18 9 -13
0 -46 31 -46 44 0 3 11 -1 25 -10 14 -9 32 -14 40 -10 8 3 15 1 15 -4 0 -6 5
-10 12 -10 6 0 3 9 -7 20 -10 11 -23 20 -29 20 -6 0 -4 -5 4 -10 13 -9 13 -10
0 -10 -8 0 -22 5 -30 10 -13 9 -13 10 0 11 10 0 8 3 -5 9 -30 13 -35 12 -35
-9z"/>
<path d="M1086 1438 c-8 -33 -6 -46 4 -23 7 17 9 14 9 -13 1 -20 -3 -31 -9
-27 -19 12 -31 -6 -15 -21 17 -17 20 -50 5 -59 -11 -7 -2 -35 12 -35 5 0 16
-7 24 -15 18 -18 65 -20 82 -3 9 9 21 7 51 -10 85 -48 283 -78 346 -53 12 5
-28 10 -105 13 -108 4 -134 8 -193 32 -58 24 -69 33 -74 57 -3 16 -9 29 -14
29 -5 0 -9 8 -10 18 -1 11 -4 9 -10 -8 -7 -22 -8 -21 -6 10 1 19 -2 36 -8 37
-5 2 -10 -13 -10 -31 l0 -34 -27 20 c-24 17 -27 25 -24 66 3 50 -1 72 -14 72
-4 0 -10 -10 -14 -22z m45 -125 c12 -14 12 -16 0 -9 -9 6 -12 5 -9 -5 2 -7 15
-14 29 -14 15 0 24 -6 24 -15 0 -8 5 -18 10 -22 6 -4 -3 -8 -19 -8 -21 0 -27
4 -22 15 5 15 -4 19 -38 15 -14 -1 -17 3 -12 15 3 9 6 23 6 31 0 19 15 18 31
-3z"/>
<path d="M935 1371 c-6 -12 40 -49 70 -57 13 -3 36 -4 51 -1 23 3 21 4 -11 6
-40 1 -85 23 -85 41 0 5 19 11 43 13 41 3 40 4 -10 5 -28 1 -54 -2 -58 -7z"/>
</g>
</svg>
